<?xml version="1.0" standalone="no"?>
<!DOCTYPE svg PUBLIC "-//W3C//DTD SVG 20010904//EN"
 "http://www.w3.org/TR/2001/REC-SVG-20010904/DTD/svg10.dtd">
<svg version="1.0" xmlns="http://www.w3.org/2000/svg"
 width="500.000000pt" height="500.000000pt" viewBox="0 0 500.000000 500.000000"
 preserveAspectRatio="xMidYMid meet">

<g transform="translate(0.000000,500.000000) scale(0.100000,-0.100000)"
fill="#000000" stroke="none">
<path d="M1063 4580 c-239 -63 -418 -235 -499 -480 -16 -49 -19 -109 -24 -565
-5 -499 -5 -511 -27 -550 -27 -52 -61 -82 -213 -195 -69 -51 -142 -109 -162
-128 -68 -64 -86 -176 -43 -265 10 -22 60 -76 119 -129 246 -221 278 -252 299
-292 22 -40 22 -49 27 -531 5 -480 6 -491 29 -555 88 -247 259 -409 498 -471
53 -13 110 -19 185 -19 l108 0 0 230 0 230 -68 0 c-129 0 -219 46 -261 133
-20 42 -21 58 -21 453 0 443 -7 544 -44 654 -37 108 -81 175 -187 284 l-97 98
103 102 c88 86 109 113 143 186 74 154 74 155 81 717 l6 501 30 44 c56 79 120
108 243 108 l72 0 0 230 0 230 -112 -1 c-77 0 -136 -6 -185 -19z"/>
<path d="M3650 4370 l0 -230 66 0 c36 0 85 -5 109 -11 54 -14 118 -67 148
-123 22 -40 22 -49 28 -551 4 -455 7 -516 23 -565 23 -69 66 -156 104 -212 31
-44 125 -138 175 -174 l28 -20 -75 -67 c-84 -76 -153 -165 -192 -252 -57 -125
-57 -123 -63 -645 -6 -474 -6 -486 -28 -526 -47 -88 -136 -134 -260 -134 l-63
0 0 -230 0 -230 103 0 c126 0 230 24 337 77 111 55 241 188 297 303 76 156 75
148 82 691 l6 486 26 39 c14 21 105 108 202 193 203 178 227 211 227 310 0
109 -21 137 -224 289 -115 86 -185 147 -203 174 l-28 41 -6 501 c-5 473 -7
505 -27 580 -34 122 -85 208 -182 307 -144 146 -295 209 -501 209 l-109 0 0
-230z"/>
<path d="M1787 3722 c-13 -14 -17 -39 -17 -109 l0 -90 -58 -6 c-135 -12 -222
-103 -222 -234 l0 -43 -88 0 c-106 0 -135 -14 -130 -63 4 -44 35 -57 136 -57
l82 0 0 -110 0 -110 -91 0 c-109 0 -129 -8 -129 -55 0 -47 20 -55 129 -55 l91
0 0 -115 0 -115 -98 0 c-106 0 -122 -7 -122 -50 0 -48 26 -60 128 -60 l92 0 0
-110 0 -110 -88 0 c-106 0 -135 -14 -130 -63 4 -44 35 -57 136 -57 l82 0 0
-110 0 -110 -91 0 c-108 0 -129 -9 -129 -53 0 -51 13 -57 122 -57 l98 0 0 -53
c0 -74 38 -148 97 -189 37 -25 59 -32 114 -36 l69 -5 0 -91 c0 -103 11 -128
53 -129 50 0 57 16 57 125 l0 99 113 -3 112 -3 3 -97 c3 -104 11 -120 59 -121
42 0 53 26 53 130 l0 93 110 0 110 0 0 -90 c0 -83 2 -93 25 -115 29 -30 36
-31 66 -6 22 17 24 29 27 115 l4 96 109 0 109 0 0 -93 c0 -104 11 -129 53
-130 50 0 57 16 57 125 l0 99 113 -3 112 -3 3 -97 c3 -104 11 -121 59 -121 42
1 53 26 53 130 l0 93 53 0 c130 0 227 101 227 237 l0 43 91 0 c105 0 129 9
129 49 0 49 -25 61 -128 61 l-92 0 0 110 0 110 83 0 c100 0 131 13 135 57 5
49 -24 63 -130 63 l-88 0 0 110 0 110 93 0 c103 0 127 12 127 61 0 42 -17 49
-122 49 l-98 0 0 115 0 115 91 0 c105 0 129 9 129 50 0 50 -21 60 -126 60
l-94 0 0 110 0 110 83 0 c100 0 131 13 135 57 5 49 -24 63 -130 63 l-88 0 0
48 c-1 124 -91 218 -222 229 l-58 6 0 92 c0 99 -12 125 -58 125 -42 0 -52 -25
-52 -126 l0 -94 -115 0 -115 0 0 94 c0 102 -10 126 -54 126 -44 0 -56 -28 -56
-128 l0 -92 -109 0 -109 0 -4 96 c-3 103 -14 124 -64 124 -40 0 -54 -35 -54
-132 l0 -88 -110 0 -110 0 0 88 c0 98 -14 132 -55 132 -45 0 -55 -23 -55 -126
l0 -94 -115 0 -115 0 0 94 c0 73 -4 98 -16 110 -21 21 -57 20 -77 -2z m1533
-325 c19 -7 44 -27 57 -46 l23 -34 0 -804 c0 -886 2 -856 -61 -888 -43 -23
-1636 -22 -1679 0 -63 33 -61 -7 -58 894 l3 819 24 26 c14 15 39 30 55 35 50
15 1594 12 1636 -2z"/>
<path d="M1725 3266 c-14 -20 -15 -111 -13 -770 3 -727 4 -748 22 -762 17 -12
137 -14 766 -14 747 0 747 0 766 21 18 20 19 48 19 769 0 618 -2 750 -14 763
-12 16 -79 17 -772 17 l-759 0 -15 -24z m1445 -761 l0 -675 -670 0 -670 0 0
675 0 675 670 0 670 0 0 -675z"/>
<path d="M2026 2989 c-25 -20 -26 -24 -26 -129 0 -106 1 -109 28 -130 21 -17
36 -21 71 -17 69 8 76 21 76 148 0 104 -1 112 -24 130 -31 26 -91 25 -125 -2z
m92 -126 c-3 -88 -3 -88 -30 -91 l-28 -3 0 90 0 91 30 0 31 0 -3 -87z"/>
<path d="M2284 2996 c-9 -24 3 -46 26 -46 19 0 20 -6 20 -89 0 -85 -1 -90 -22
-93 -26 -3 -37 -36 -16 -49 17 -11 129 -11 146 0 21 13 10 44 -18 51 -24 6
-25 8 -30 120 l-5 115 -48 3 c-35 2 -49 -1 -53 -12z"/>
<path d="M2560 2995 c-16 -19 3 -45 31 -45 17 0 19 -9 19 -90 0 -90 0 -90 -25
-90 -30 0 -43 -24 -25 -45 9 -11 32 -15 80 -15 48 0 71 4 80 15 18 21 5 45
-25 45 l-25 0 0 114 c0 125 0 126 -65 126 -18 0 -38 -7 -45 -15z"/>
<path d="M2850 2990 c-18 -18 -20 -33 -20 -129 0 -106 1 -110 26 -130 40 -31
112 -24 136 13 4 6 8 61 8 123 0 104 -1 113 -22 127 -33 23 -103 21 -128 -4z
m95 -130 l0 -85 -27 -3 -28 -3 0 91 0 91 28 -3 27 -3 0 -85z"/>
<path d="M2007 2643 c-18 -17 -6 -44 23 -49 l30 -6 0 -82 0 -82 -31 -11 c-21
-8 -30 -17 -27 -30 3 -15 15 -18 84 -21 65 -2 83 0 87 12 7 18 -17 46 -39 46
-11 0 -14 20 -14 99 0 55 -3 106 -6 115 -4 12 -20 16 -53 16 -26 0 -51 -3 -54
-7z"/>
<path d="M2294 2629 c-16 -18 -19 -37 -19 -124 0 -128 10 -145 90 -145 77 0
85 13 85 143 0 94 -2 109 -20 127 -29 29 -110 28 -136 -1z m96 -124 l0 -85
-30 0 -30 0 0 78 c0 43 3 82 7 85 3 4 17 7 30 7 22 0 23 -3 23 -85z"/>
<path d="M2570 2628 c-17 -19 -20 -35 -20 -123 0 -125 12 -145 90 -145 79 0
90 17 90 143 0 128 -12 147 -90 147 -38 0 -54 -5 -70 -22z m100 -123 l0 -85
-30 0 -30 0 0 85 0 85 30 0 30 0 0 -85z"/>
<path d="M2837 2643 c-18 -17 -6 -44 23 -49 l30 -6 0 -84 c0 -76 -2 -84 -19
-84 -24 0 -45 -25 -37 -45 4 -12 23 -15 86 -15 79 0 80 0 80 25 0 18 -7 26
-25 31 -25 6 -25 8 -25 104 0 54 -3 105 -6 114 -4 12 -20 16 -53 16 -26 0 -51
-3 -54 -7z"/>
<path d="M2015 2286 c-23 -17 -14 -43 17 -48 22 -3 23 -8 26 -89 l3 -86 -31
-7 c-26 -5 -31 -10 -28 -28 3 -21 9 -23 79 -26 59 -2 79 1 89 13 16 19 -2 45
-31 45 -17 0 -19 9 -19 110 0 98 -2 110 -19 120 -27 14 -64 13 -86 -4z"/>
<path d="M2320 2288 c-42 -22 -51 -54 -47 -157 3 -83 6 -96 26 -112 32 -26
104 -26 131 1 18 18 20 33 20 128 0 91 -3 111 -17 125 -26 22 -83 30 -113 15z
m70 -139 l0 -90 -27 3 c-27 3 -28 5 -31 77 -4 90 0 101 33 101 25 0 25 0 25
-91z"/>
<path d="M2565 2286 c-25 -18 -13 -46 20 -46 25 0 25 0 25 -90 0 -81 -2 -90
-19 -90 -24 0 -45 -25 -37 -45 8 -22 164 -22 172 0 8 20 -13 45 -37 45 -17 0
-19 9 -19 110 0 98 -2 110 -19 120 -27 14 -64 13 -86 -4z"/>
<path d="M2885 2293 c-49 -13 -55 -30 -55 -145 0 -95 2 -110 20 -128 25 -25
95 -27 128 -4 21 14 22 23 22 128 0 96 -3 115 -18 129 -20 19 -67 28 -97 20z
m60 -143 l0 -85 -27 -3 -28 -3 0 91 0 91 28 -3 27 -3 0 -85z"/>
</g>
</svg>
